<?xml version="1.0" encoding="UTF-8" standalone="no"?>
<!-- Created with Inkscape (http://www.inkscape.org/) -->

<svg
   xmlns:dc="http://purl.org/dc/elements/1.1/"
   xmlns:cc="http://creativecommons.org/ns#"
   xmlns:rdf="http://www.w3.org/1999/02/22-rdf-syntax-ns#"
   xmlns:svg="http://www.w3.org/2000/svg"
   xmlns="http://www.w3.org/2000/svg"
   xmlns:sodipodi="http://sodipodi.sourceforge.net/DTD/sodipodi-0.dtd"
   xmlns:inkscape="http://www.inkscape.org/namespaces/inkscape"
   id="svg3039"
   version="1.1"
   inkscape:version="0.48.0 r9654"
   width="336.97809"
   height="336.98376"
   sodipodi:docname="yoga.svg"
   inkscape:export-filename="/home/ruben/Images/iconesOSM/yoga.png"
   inkscape:export-xdpi="4.2825279"
   inkscape:export-ydpi="4.2825279">
  <metadata
     id="metadata3045">
    <rdf:RDF>
      <cc:Work
         rdf:about="">
        <dc:format>image/svg+xml</dc:format>
        <dc:type
           rdf:resource="http://purl.org/dc/dcmitype/StillImage" />
        <dc:title></dc:title>
      </cc:Work>
    </rdf:RDF>
  </metadata>
  <defs
     id="defs3043" />
  <sodipodi:namedview
     pagecolor="#ffffff"
     bordercolor="#666666"
     borderopacity="1"
     objecttolerance="10"
     gridtolerance="10"
     guidetolerance="10"
     inkscape:pageopacity="0"
     inkscape:pageshadow="2"
     inkscape:window-width="1600"
     inkscape:window-height="823"
     id="namedview3041"
     showgrid="true"
     inkscape:zoom="0.5"
     inkscape:cx="103.72681"
     inkscape:cy="15.25487"
     inkscape:window-x="0"
     inkscape:window-y="24"
     inkscape:window-maximized="1"
     inkscape:current-layer="layer1"
     inkscape:snap-grids="false"
     showborder="true"
     fit-margin-top="0"
     fit-margin-left="14"
     fit-margin-right="14"
     fit-margin-bottom="0">
    <inkscape:grid
       type="xygrid"
       id="grid4137"
       empspacing="5"
       visible="true"
       enabled="true"
       snapvisiblegridlinesonly="true" />
  </sodipodi:namedview>
  <g
     inkscape:groupmode="layer"
     id="layer1"
     inkscape:label="yoga"
     transform="translate(-326.01577,-207.4637)">
    <path
       style="fill:#000000"
       d=""
       id="path3060"
       inkscape:connector-curvature="0" />
    <path
       style="fill:#000000"
       d=""
       id="path3062"
       inkscape:connector-curvature="0" />
    <path
       style="fill:none;stroke:#000000;stroke-width:1px;stroke-linecap:butt;stroke-linejoin:miter;stroke-opacity:1"
       d="M 631.44636,289.495 z"
       id="path4115"
       inkscape:connector-curvature="0" />
    <path
       style="fill:#000000;fill-opacity:1;stroke:#000000;stroke-width:0.35355338;stroke-opacity:1"
       d="m 418.97168,543.92888 c -0.0827,-0.25485 -0.38342,-1.89526 -0.66831,-3.64535 -0.49179,-3.02109 -0.47189,-3.55341 0.39355,-10.52801 l 0.91153,-7.34603 -1.17617,-2.43127 c -1.282,-2.65002 -1.62466,-2.85243 -4.82878,-2.85243 -0.85074,0 -1.54672,-0.11933 -1.54661,-0.26517 10e-5,-0.14584 0.38613,-3.18602 0.85785,-6.75595 l 0.85767,-6.49078 -2.24504,-9.5959 -2.24503,-9.59589 -0.231,-9.01561 c -0.21768,-8.49592 -0.3611,-9.94291 -2.48807,-25.10229 -1.2414,-8.84768 -3.06918,-22.53019 -4.06174,-30.40559 l -1.80466,-14.31892 0.23588,-10.25305 c 0.18172,-7.89887 0.0987,-12.36368 -0.36149,-19.44543 -0.5826,-8.96508 -0.75026,-19.42721 -0.35691,-22.27241 0.19168,-1.38655 0.0845,-1.55748 -5.21326,-8.30996 -4.99798,-6.37044 -7.15702,-8.64985 -28.41474,-29.99878 l -23.00577,-23.1045 -1.69402,-4.02559 -1.69401,-4.02559 1.35764,-4.81145 c 0.7467,-2.6463 1.5233,-5.0283 1.72578,-5.29334 0.8993,-1.17711 17.86776,-10.05164 26.00077,-13.59844 8.10427,-3.53425 9.42159,-4.24767 20.45681,-11.0787 6.48712,-4.01566 11.88978,-7.3012 12.00591,-7.3012 0.11614,0 0.79764,0.57268 1.51445,1.27263 l 1.30329,1.27263 8.78789,-6.79449 8.78788,-6.79448 8.25895,-4.02148 c 5.97387,-2.90883 8.20626,-4.15876 8.06855,-4.51762 -0.5676,-1.47913 -1.03617,-3.42776 -0.86533,-3.5986 0.10773,-0.10774 3.61974,-0.4585 7.80447,-0.77948 l 7.60858,-0.5836 1.77997,0.8337 c 1.74493,0.81727 1.93312,0.83004 9.55825,0.64833 l 7.77829,-0.18535 3.85641,-2.26644 3.85642,-2.26644 11.86007,-2.0198 c 10.97907,-1.86976 12.09029,-2.12566 14.95948,-3.44495 1.70467,-0.78384 3.212,-1.3008 3.34961,-1.14881 0.13762,0.15199 1.46331,1.91865 2.94598,3.9259 1.95771,2.65036 2.6492,3.86033 2.52565,4.41942 -0.37147,1.68092 -1.95179,11.97876 -1.95179,12.71842 0,0.54385 1.57926,2.36496 5.0897,5.86914 l 5.08971,5.08062 0.25424,4.63752 0.25425,4.63752 3.46983,3.73874 3.46983,3.73875 -1.5284,2.57772 -1.52839,2.57773 0.89658,1.99203 c 0.78177,1.73694 0.88738,2.42216 0.82465,5.3508 -0.0438,2.0446 -0.23637,3.5152 -0.49219,3.75859 -0.23113,0.21992 -1.69303,0.81101 -3.24867,1.31353 -2.80564,0.90632 -2.85975,0.90976 -6.71751,0.42621 -2.139,-0.26811 -3.91396,-0.46145 -3.94436,-0.42964 -0.0304,0.0318 -0.93379,2.92161 -2.00754,6.42179 -1.67536,5.46128 -3.17525,11.71505 -3.50201,14.60155 -0.082,0.72434 0.33188,0.98732 3.79705,2.41262 2.139,0.87981 7.29765,3.04573 11.46366,4.81317 l 7.57457,3.21352 10.18337,-0.89575 10.18337,-0.89573 4.24359,0.68379 4.24358,0.6838 15.29836,-2.50734 c 8.41409,-1.37904 20.42166,-3.1101 26.68346,-3.84681 l 11.38511,-1.33946 4.43914,-3.38741 4.43915,-3.38742 3.05654,-0.43387 c 3.76391,-0.53429 3.79833,-0.53424 7.7889,0.0117 l 3.24952,0.4446 1.70023,2.45071 1.70023,2.45071 3.18198,-0.21947 c 1.75009,-0.12071 3.48426,-0.30855 3.85372,-0.41741 0.6175,-0.18195 0.6076,-0.10785 -0.12264,0.91767 -0.43691,0.61358 -1.13694,1.32701 -1.55563,1.58538 -0.41868,0.25838 -3.62502,1.19194 -7.1252,2.07459 l -6.36396,1.60481 -9.8995,0.42246 c -6.63304,0.28306 -9.9852,0.55625 -10.15924,0.82794 -0.14286,0.22301 -0.59852,1.43962 -1.01258,2.70357 -1.38137,4.21671 -0.57888,3.88909 -9.52615,3.88909 l -7.77698,0 -16.16811,4.61243 -16.16812,4.61244 -24.86613,1.54483 c -13.67638,0.84966 -24.90864,1.59807 -24.96059,1.66314 -0.052,0.0651 -1.7081,2.74344 -3.68035,5.95194 l -3.58589,5.83363 -8.95704,5.79451 -8.95705,5.79451 -2.4404,4.6736 -2.44039,4.6736 -6.72513,1.71244 c -4.71038,1.19943 -8.94943,2.5906 -14.14975,4.6437 -4.30155,1.69826 -11.0682,3.98841 -16.08668,5.44447 -4.76413,1.38228 -8.75793,2.66747 -8.87512,2.85598 -0.11718,0.18851 -0.30806,5.78067 -0.42418,12.42701 l -0.21113,12.08425 -1.75893,8.83884 c -1.14391,5.74828 -2.26165,10.26049 -3.1967,12.9047 -1.41766,4.00899 -1.43783,4.1351 -1.44254,9.01561 -0.009,9.6269 -0.74655,25.88162 -1.42409,31.39712 l -0.68642,5.58772 1.07021,13.68094 c 0.58861,7.52451 1.20856,18.32094 1.37766,23.99206 l 0.30746,10.31111 1.74587,3.93717 1.74585,3.93716 -0.6547,2.36108 c -0.36009,1.2986 -0.65471,2.44644 -0.65471,2.55077 0,0.10433 1.36035,1.76203 3.023,3.68377 2.24257,2.59203 3.94377,4.1312 6.58965,5.962 3.25111,2.24958 4.227,2.70119 11.03075,5.10467 8.09111,2.85824 10.66008,3.77997 11.61835,4.16858 0.65315,0.26487 0.79979,1.11033 0.3229,1.8617 -0.21703,0.34194 -4.53668,0.56997 -18.1142,0.95621 -9.80606,0.27895 -20.09766,0.60361 -22.87022,0.72145 -3.99155,0.16966 -5.07231,0.1178 -5.19135,-0.24909 l 0,0 z m 34.51362,-229.86893 2.36096,-0.75769 6.03154,-7.20034 c 3.31734,-3.96019 5.96124,-7.31408 5.87532,-7.4531 -0.0859,-0.13902 -1.19208,-0.69301 -2.45813,-1.23109 l -2.30191,-0.97833 1.03442,-2.04918 c 0.88068,-1.74461 0.98394,-2.2252 0.69476,-3.2335 -0.18681,-0.65137 -0.33966,-1.35874 -0.33966,-1.57192 0,-0.22559 1.43879,-0.56442 3.44227,-0.81063 1.89325,-0.23267 3.539,-0.53659 3.65721,-0.67539 0.11821,-0.1388 0.63265,-1.7475 1.14318,-3.5749 l 0.92824,-3.32252 -1.3434,-1.62722 c -0.73887,-0.89497 -1.448,-1.8077 -1.57584,-2.02828 -0.14751,-0.25451 0.78431,-0.82085 2.55,-1.54985 l 2.78245,-1.14879 0.21835,-1.59309 c 0.1201,-0.8762 0.21836,-2.36169 0.21836,-3.30109 0,-0.9394 0.55192,-5.18652 1.22649,-9.43804 1.00867,-6.35716 1.51577,-8.54103 2.85524,-12.2964 l 1.62875,-4.56636 5.77465,-5.65685 5.77464,-5.65686 0.24295,-2.88514 0.24294,-2.88513 -2.77404,-0.60166 c -1.52571,-0.33092 -3.96727,-0.87209 -5.42568,-1.20261 -2.40527,-0.54512 -3.17534,-0.55665 -8.28783,-0.12409 -4.85414,0.41069 -6.47935,0.71952 -11.71284,2.22572 -8.99228,2.58798 -12.43463,3.17214 -18.71342,3.1756 l -5.30331,0.003 -3.45737,2.75936 c -2.28861,1.82656 -4.09662,3.63696 -5.34833,5.35544 l -1.89096,2.59607 0.18344,4.52277 0.18343,4.52277 -2.38366,3.20141 c -2.63004,3.53231 -2.55379,3.49846 -6.01772,2.6715 -1.77457,-0.42366 -2.31407,-0.74726 -3.35875,-2.01465 -0.68453,-0.83045 -1.66184,-1.98168 -2.1718,-2.55828 l -0.9272,-1.04838 -2.78511,1.27365 -2.78511,1.27364 -0.28664,2.59746 c -0.15765,1.4286 -0.3963,2.70847 -0.53033,2.84414 -0.13403,0.13567 -1.8975,0.97972 -3.91883,1.87566 -3.19374,1.4156 -4.47559,2.28026 -9.78598,6.60103 -5.29808,4.31074 -6.58336,5.56669 -9.66352,9.44296 l -3.55267,4.47092 -6.19517,2.05375 c -3.43301,1.13808 -6.18709,2.23932 -6.17705,2.46996 0.01,0.22892 0.84524,2.03907 1.85616,4.02256 l 1.83803,3.60634 5.3033,3.62514 c 4.57955,3.13041 6.02343,3.90731 10.58002,5.69268 4.93382,1.93319 5.45726,2.23031 8.05519,4.57231 l 2.77848,2.50476 8.38504,1.54354 c 6.61673,1.21803 10.43544,1.69891 18.10776,2.28026 7.91585,0.5998 10.64257,0.95009 14.67246,1.88491 5.48181,1.27161 4.80538,1.31077 10.84623,-0.62789 l 0,0 z m 183.78872,-18.43941 0.83416,-0.88793 -1.16597,-1.20298 c -1.00152,-1.03331 -1.44708,-1.22251 -3.15902,-1.34146 -1.71926,-0.11945 -2.33304,0.0296 -4.46793,1.0846 l -2.47487,1.22308 2.12132,0.97923 c 1.69679,0.78326 2.65733,0.98465 4.79973,1.00631 2.4212,0.0245 2.75851,-0.0582 3.51258,-0.86085 l 0,0 z"
       id="path4135"
       inkscape:connector-curvature="0" />
    <rect
       style="fill:#000000;fill-opacity:1;stroke:#000000;stroke-opacity:1"
       id="rect3009"
       width="89"
       height="9"
       x="0.75"
       y="327.48376"
       transform="translate(326.01577,207.4637)" />
    <rect
       style="fill:#000000;fill-opacity:1;stroke:#000000;stroke-opacity:1"
       id="rect3011"
       width="195"
       height="9.75"
       x="141.75"
       y="326.98376"
       transform="translate(326.01577,207.4637)" />
  </g>
</svg>
